<?xml version="1.0" ?><svg id="Layer_1" style="enable-background:new 0 0 65 65;" version="1.1" viewBox="0 0 65 65" xml:space="preserve" xmlns="http://www.w3.org/2000/svg" xmlns:xlink="http://www.w3.org/1999/xlink"><style type="text/css">
	.st0{fill:#1C1F20;}
</style><g><path class="st0" d="M9.5,62.8h-8c-0.4,0-0.8,0.3-0.8,0.8s0.3,0.8,0.8,0.8h8c0.4,0,0.8-0.3,0.8-0.8S9.9,62.8,9.5,62.8z"/><path class="st0" d="M15.5,62.8h-2c-0.4,0-0.8,0.3-0.8,0.8s0.3,0.8,0.8,0.8h2c0.4,0,0.8-0.3,0.8-0.8S15.9,62.8,15.5,62.8z"/><path class="st0" d="M63.5,12.8c-0.4,0-0.8,0.3-0.8,0.8v12c0,0.4,0.3,0.8,0.8,0.8s0.8-0.3,0.8-0.8v-12   C64.3,13.1,63.9,12.8,63.5,12.8z"/><path class="st0" d="M63.5,28.8c-0.4,0-0.8,0.3-0.8,0.8v2c0,0.4,0.3,0.8,0.8,0.8s0.8-0.3,0.8-0.8v-2C64.3,29.1,63.9,28.8,63.5,28.8   z"/><path class="st0" d="M54.5,60.8h-1.3v-1.3c0-0.4-0.3-0.8-0.8-0.8s-0.8,0.3-0.8,0.8v1.3h-1.3c-0.4,0-0.8,0.3-0.8,0.8   s0.3,0.8,0.8,0.8h1.3v1.3c0,0.4,0.3,0.8,0.8,0.8s0.8-0.3,0.8-0.8v-1.3h1.3c0.4,0,0.8-0.3,0.8-0.8S54.9,60.8,54.5,60.8z"/><path class="st0" d="M10.5,4.3h1.3v1.3c0,0.4,0.3,0.8,0.8,0.8s0.8-0.3,0.8-0.8V4.3h1.3c0.4,0,0.8-0.3,0.8-0.8s-0.3-0.8-0.8-0.8   h-1.3V1.5c0-0.4-0.3-0.8-0.8-0.8s-0.8,0.3-0.8,0.8v1.3h-1.3c-0.4,0-0.8,0.3-0.8,0.8S10.1,4.3,10.5,4.3z"/><path class="st0" d="M32.5,27.2c0.4,0,0.8-0.3,0.8-0.8s-0.3-0.8-0.8-0.8c-3.7,0-6.8,3-6.8,6.8s3,6.8,6.8,6.8s6.8-3,6.8-6.8   c0-0.4-0.3-0.8-0.8-0.8s-0.8,0.3-0.8,0.8c0,2.9-2.4,5.3-5.3,5.3s-5.3-2.4-5.3-5.3S29.6,27.2,32.5,27.2z"/><path class="st0" d="M53.8,15.8c-0.3,0.2-0.4,0.7-0.2,1c3.4,4.5,5.1,9.9,5.1,15.6C58.7,47,47,58.7,32.5,58.7S6.2,47,6.2,32.5   S18,6.2,32.5,6.2c5.7,0,11.1,1.8,15.6,5.1c0.3,0.2,0.8,0.2,1-0.2c0.2-0.3,0.2-0.8-0.2-1c-4.8-3.6-10.5-5.4-16.5-5.4   C17.2,4.7,4.7,17.2,4.7,32.5s12.4,27.8,27.8,27.8s27.8-12.4,27.8-27.8c0-6-1.9-11.7-5.4-16.5C54.6,15.7,54.1,15.6,53.8,15.8z"/><path class="st0" d="M44.2,16.2c0.2-0.3,0.1-0.8-0.2-1c-3.4-2.3-7.3-3.4-11.4-3.4c-11.4,0-20.8,9.3-20.8,20.8s9.3,20.8,20.8,20.8   s20.8-9.3,20.8-20.8c0-4.1-1.2-8-3.4-11.4c-0.2-0.3-0.7-0.4-1-0.2c-0.3,0.2-0.4,0.7-0.2,1c2.1,3.1,3.2,6.8,3.2,10.6   c0,10.6-8.6,19.3-19.3,19.3s-19.3-8.6-19.3-19.3s8.6-19.3,19.3-19.3c3.8,0,7.5,1.1,10.6,3.2C43.5,16.7,43.9,16.6,44.2,16.2z"/><path class="st0" d="M39.1,21.3c0.2-0.4,0-0.8-0.3-1c-1.9-1-4.1-1.5-6.3-1.5c-7.6,0-13.8,6.2-13.8,13.8s6.2,13.8,13.8,13.8   s13.8-6.2,13.8-13.8c0-2.2-0.5-4.3-1.5-6.3c-0.2-0.4-0.6-0.5-1-0.3c-0.4,0.2-0.5,0.6-0.3,1c0.9,1.7,1.3,3.6,1.3,5.6   c0,6.8-5.5,12.3-12.3,12.3s-12.3-5.5-12.3-12.3s5.5-12.3,12.3-12.3c2,0,3.8,0.5,5.6,1.3C38.4,21.8,38.9,21.6,39.1,21.3z"/><path class="st0" d="M61.5,8.8h-4.2L61,5c0.3-0.3,0.3-0.8,0-1.1S60.3,3.7,60,4l-3.7,3.7V3.5c0-0.4-0.3-0.8-0.8-0.8   s-0.8,0.3-0.8,0.8v5.7L32,32c-0.3,0.3-0.3,0.8,0,1.1c0.1,0.1,0.3,0.2,0.5,0.2s0.4-0.1,0.5-0.2l22.8-22.8h5.7c0.4,0,0.8-0.3,0.8-0.8   S61.9,8.8,61.5,8.8z"/></g></svg>